<svg xmlns="http://www.w3.org/2000/svg" xmlns:xlink="http://www.w3.org/1999/xlink" viewBox="0 0 90 89.455" fill="#fff" fill-rule="evenodd" stroke="#000" stroke-linecap="round" stroke-linejoin="round"><use xlink:href="#A" x=".5" y="5.955"/><symbol id="A" overflow="visible"><g fill-rule="nonzero"><use xlink:href="#C" stroke="none" fill="#000"/><g fill="#ffb13b"><g stroke-width="11.91"><use xlink:href="#D"/><use xlink:href="#E"/><use xlink:href="#F"/><use xlink:href="#G"/></g><g stroke="none"><use xlink:href="#D"/><use xlink:href="#E"/><use xlink:href="#F"/><use xlink:href="#G"/></g></g><use xlink:href="#C" stroke="none" fill="#000" opacity=".85"/><path d="M13.305 60.491a11.45 11.45 0 0 1-3.367-8.122c0-6.346 5.147-11.489 11.489-11.489S32.92 46.023 32.92 52.368h-6.73a4.76 4.76 0 1 0-9.52 0 4.74 4.74 0 0 0 1.391 3.361h.003c.862.865 1.579 1.115 3.364 1.398 3.175.33 6.046 1.287 8.125 3.366s3.367 4.951 3.367 8.123c0 6.346-5.147 11.492-11.492 11.492S9.938 74.962 9.938 68.617h6.731a4.76 4.76 0 0 0 4.758 4.761c2.628 0 4.762-2.133 4.762-4.761a4.74 4.74 0 0 0-1.392-3.361h-.003c-.862-.862-2.098-1.159-3.367-1.395v-.003c-3.077-.472-6.043-1.287-8.122-3.367zM55.9 40.876l-8.128 39.23h-6.73l-8.122-39.23h6.73l4.763 22.976 4.756-22.976h6.73zm11.493 16.251h11.489l.003 11.489c0 6.346-5.147 11.493-11.492 11.493s-11.489-5.147-11.489-11.493L55.9 52.369c0-6.346 5.146-11.489 11.493-11.489s11.489 5.144 11.489 11.489h-6.731c0-2.626-2.133-4.759-4.758-4.759a4.76 4.76 0 0 0-4.759 4.759v16.248a4.76 4.76 0 0 0 4.759 4.759c2.626-.002 4.754-2.13 4.758-4.756v-4.758h-4.758v-6.734z" stroke="none"/></g></symbol><defs ><path id="C" d="M0 38.358h88.673v31.333c0 7.363-5.64 13.003-13.003 13.003H13.003C5.64 82.695 0 77.055 0 69.691z"/><path id="D" d="M17.97 33.391c-2.743-2.743-7.19-2.743-9.933 0s-2.743 7.19 0 9.933 7.19 2.743 9.933 0h52.734c2.743 2.743 7.19 2.743 9.933 0s2.743-7.19 0-9.933-7.19-2.743-9.933 0z"/><path id="E" d="M29.204 16.202c0-3.879-3.145-7.024-7.024-7.024s-7.024 3.145-7.024 7.024 3.145 7.024 7.024 7.024l37.289 37.289c0 3.879 3.145 7.024 7.024 7.024s7.024-3.145 7.024-7.024-3.145-7.024-7.024-7.024z"/><path id="F" d="M49.303 11.991c2.743-2.743 2.743-7.19 0-9.933s-7.19-2.743-9.933 0-2.743 7.19 0 9.933v52.734c-2.743 2.743-2.743 7.19 0 9.933s7.19 2.743 9.933 0 2.743-7.19 0-9.933z"/><path id="G" d="M66.493 23.225c3.879 0 7.024-3.145 7.024-7.024s-3.145-7.024-7.024-7.024-7.024 3.145-7.024 7.024L22.18 53.489c-3.879 0-7.024 3.145-7.024 7.024s3.145 7.024 7.024 7.024 7.024-3.145 7.024-7.024z"/></defs></svg>